<svg width="1000" height="998" viewBox="0 0 1000 998" fill="none" xmlns="http://www.w3.org/2000/svg">
<rect width="1000" height="998" fill="#F5F5F5"/>
<g clip-path="url(#clip0_2002_2741)">
<path d="M975.746 686.57H1066.02V203.371H975.746V686.57Z" fill="#696969"/>
<path d="M419.512 848.414H757.984V746.855H419.512V848.414Z" fill="#696969"/>
<path d="M343.055 183.168H433.324V92.9102H343.055V183.168Z" fill="#696969"/>
<path d="M447.652 508.699H759.059V84.5547H447.652V508.699Z" fill="#696969"/>
<path d="M771.715 182.137H861.988V91.8789H771.715V182.137Z" fill="#696969"/>
<path d="M625.988 689.148L622.879 672.836L614.285 658.828L599.48 649.832L582.445 647.125L565.648 650.945L551.48 660.816L542.086 675.305L538.82 692.254L541.848 708.492L550.523 722.5L565.25 731.492L582.289 734.199L599.082 730.379L613.254 720.512L622.648 706.023L625.988 689.148Z" fill="#696969"/>
<path d="M-4.60938 425.641L107.555 450.949L132.469 340.953L20.3086 315.559L-4.60938 425.641Z" fill="#696969"/>
<path d="M170.074 726.898H282.871V257.148H170.074V726.898Z" fill="#696969"/>
<path d="M-9.5 566.406L102.359 540.992L127.133 651.172L15.2695 676.508L-9.5 566.406Z" fill="#696969"/>
<path d="M429.461 837.668H765.539V738.488H429.461V837.668Z" fill="#D6A45A"/>
<path d="M591.25 638.781L607.812 641.422L622.172 650.145L630.496 663.715L633.527 679.586L630.266 696.02L621.133 710.117L607.348 719.707L590.996 723.426L574.43 720.797L560.137 712.074L551.73 698.504L548.793 682.711L551.965 666.199L561.113 652.102L574.898 642.512L591.25 638.781Z" fill="#D7D7D7"/>
<path d="M106.281 545.32L112.871 574.656L124.137 624.727L115.141 626.762L35.7773 644.734L18.7617 569.262L16.4297 569.793L33.4453 645.262L32.1719 645.559L32.7031 647.891L33.9766 647.594L34.8438 651.449L37.1758 650.922L36.3047 647.066L115.668 629.094L124.664 627.059L125.582 631.117L69.1406 643.941L33.4453 652.055L14.1172 566.215L95.9648 547.652L106.281 545.32Z" fill="#8E7B6B"/>
<path d="M110.586 544.344L111.145 546.828L113.289 546.363L130.758 623.949L128.613 624.434L129.902 630.137L127.914 630.586L126.996 626.531L127.336 626.453L126.809 624.121L126.469 624.199L108.598 544.793L110.586 544.344Z" fill="#D7D7D7"/>
<path d="M108.133 533.352L110.074 542.027L108.844 542.309L108.066 542.477L107.43 539.617L105.117 540.145L105.754 543.004L13.6016 563.883L12.0938 557.23L9.76562 557.758L11.2539 564.41L6.21875 565.562L6.75 567.895L11.7852 566.758L31.1172 652.582L27.3398 653.438L27.8672 655.77L31.6445 654.918L31.7539 655.43L34.082 654.898L33.9766 654.387L60.1914 648.434L126.094 633.465L126.777 636.465L129.109 635.934L128.426 632.918L130.43 632.469L132.387 641.125L124.93 642.82L24.9453 665.535L0.691406 557.695L108.133 533.352Z" fill="#D7D7D7"/>
<path d="M38.418 320.891L76.4766 329.508L130.898 341.836L129.965 345.953L41.3086 325.883L42.1641 322.105L39.832 321.574L38.9805 325.355L37.6875 325.059L37.1602 327.395L38.4531 327.688L21.3711 403.16L23.7031 403.688L40.7812 328.219L129.438 348.285L111.535 427.539L19.0586 406.629L38.418 320.891Z" fill="#8E7B6B"/>
<path d="M29.9062 307.43L137.641 331.789L135.684 340.465L133.754 340.031L134.426 337.078L132.094 336.547L131.426 339.5L38.9492 318.566L39.0547 318.051L36.7422 317.523L36.6172 318.031L32.8242 317.18L32.2969 319.512L36.1055 320.367L16.7266 406.109L11.6602 404.965L11.1328 407.297L16.1992 408.441L14.6875 415.098L17.0195 415.629L18.5273 408.961L111.004 429.852L110.367 432.695L112.699 433.223L113.336 430.379L114.688 430.688L115.25 430.812L113.305 439.473L5.59766 415.16L29.9062 307.43Z" fill="#D7D7D7"/>
<path d="M180.016 716.148H290.43V248.781H180.016V716.148Z" fill="#D6A45A"/>
<path d="M985.691 675.824H1073.59V195.008H985.691V675.824Z" fill="#D6A45A"/>
<path d="M466.539 193.891L766.629 221.465V497.953H457.605V194.805L466.539 193.891Z" fill="#9B7C7D"/>
<path d="M985.691 192.613H1073.59V192.457H985.691V192.613Z" fill="#D7D7D7"/>
<path d="M981.715 192.613H983.312V192.457H981.715V192.613Z" fill="#D7D7D7"/>
<path d="M600.289 174.473L600.43 177.789L466.508 191.496L457.605 190.672V189.055L600.289 174.473Z" fill="#D7D7D7"/>
<path d="M781.668 175.766H869.547V173.773H781.668V175.766Z" fill="#D7D7D7"/>
<path d="M776.965 175.766H779.281V173.773H776.965V175.766Z" fill="#D7D7D7"/>
<path d="M766.629 163.172V219.074L478.91 192.633L600.539 180.18L600.645 182.895L603.043 182.793L602.918 179.93L625.684 177.598L755.344 164.34L755.086 171.027L757.457 171.117L757.742 164.09L766.629 163.172Z" fill="#D7D7D7"/>
<path d="M755.562 158.586L755.438 161.91L602.824 177.539L602.684 174.227L613.797 173.09L613.781 173.402L616.168 173.512L616.203 172.84L755.562 158.586Z" fill="#D7D7D7"/>
<path d="M766.629 157.453V160.781L757.832 161.676L757.957 158.34L766.629 157.453Z" fill="#D7D7D7"/>
<path d="M774.586 156.629V159.953L769.004 160.531V157.203L774.586 156.629Z" fill="#D7D7D7"/>
<path d="M760.582 91.8828L766.629 92.1172V155.039L758.066 155.926L760.582 91.8828Z" fill="#D7D7D7"/>
<path d="M619.621 86.3008L758.191 91.7852L755.672 156.16L642.559 167.742L616.293 170.434L619.621 86.3008Z" fill="#9B7C7D"/>
<path d="M596.547 85.8945L600.195 172.082L466.184 186.418L466.32 186.195L462.312 91.5234L596.547 85.8945Z" fill="#9B7C7D"/>
<path d="M353.008 172.422H440.883V84.543H353.008V172.422Z" fill="#D6A45A"/>
<path d="M781.668 171.379H869.547V83.5156H781.668V171.379Z" fill="#D6A45A"/>
<path d="M776.965 171.379H779.281V83.5156H776.965V171.379Z" fill="#D7D7D7"/>
<path d="M776.965 81.1289H779.281V76.1992H776.965V81.1289Z" fill="#D7D7D7"/>
<path d="M769.004 76.1992H774.586V154.234L769.004 154.809V92.207L772.473 92.3516L772.562 89.9688L769.004 89.8281V76.1992Z" fill="#D7D7D7"/>
<path d="M457.605 76.1992H766.629V89.7383L760.676 89.5039L760.973 82.0547L758.578 81.9648L758.285 89.4102L619.73 83.9062L619.918 79.0234L617.523 78.9297L617.34 83.8125L613.98 83.6719L613.887 86.0664L617.23 86.207L613.887 170.676L608.609 171.227L602.574 171.832L598.938 85.8008L603.957 85.5859L603.863 83.1914L598.844 83.4102L598.582 77.1758L596.188 77.2852L596.453 83.5L462.203 89.1484L461.895 81.7148L459.516 81.8125L459.828 89.2539L457.605 89.3516V76.1992Z" fill="#D7D7D7"/>
<path d="M457.605 186.68V91.7266L459.938 91.6328L465.328 186.566L457.605 186.68Z" fill="#D7D7D7"/>
<path d="M37.6875 325.058L37.1602 327.394L132.047 348.875L132.574 346.546L37.6875 325.058Z" stroke="white" stroke-width="0.795776"/>
<path d="M37.6875 325.059L37.1602 327.395L132.047 348.875L132.574 346.547L37.6875 325.059Z" fill="#010101"/>
<path d="M39.832 321.574L21.3711 403.16L23.7031 403.687L42.1641 322.105L39.832 321.574Z" stroke="white" stroke-width="0.795776"/>
<path d="M39.832 321.574L21.3711 403.16L23.7031 403.688L42.1641 322.105L39.832 321.574Z" fill="#010101"/>
<path d="M141.57 324.359L113.477 448.691L115.809 449.222L143.902 324.89L141.57 324.359Z" stroke="white" stroke-width="0.795776"/>
<path d="M141.57 324.359L113.477 448.691L115.809 449.223L143.902 324.891L141.57 324.359Z" fill="#010101"/>
<path d="M5.76953 418.328L5.24219 420.66L122.336 447.089L122.863 444.757L5.76953 418.328Z" stroke="white" stroke-width="0.795776"/>
<path d="M5.76953 418.328L5.24219 420.66L122.336 447.09L122.863 444.758L5.76953 418.328Z" fill="#010101"/>
<path d="M138.789 326.675L133.848 348.566L136.18 349.097L141.121 327.207L138.789 326.675Z" stroke="white" stroke-width="0.795776"/>
<path d="M138.789 326.676L133.848 348.566L136.18 349.098L141.121 327.207L138.789 326.676Z" fill="#010101"/>
<path d="M116.336 426.007L111.797 446.218L114.129 446.746L118.668 426.523L116.336 426.007Z" stroke="white" stroke-width="0.795776"/>
<path d="M116.336 426.008L111.797 446.219L114.129 446.746L118.668 426.523L116.336 426.008Z" fill="#010101"/>
<path d="M132.094 336.546L110.367 432.695L112.699 433.222L134.426 337.078L132.094 336.546Z" stroke="white" stroke-width="0.795776"/>
<path d="M132.094 336.547L110.367 432.695L112.699 433.223L134.426 337.078L132.094 336.547Z" fill="#010101"/>
<path d="M11.6602 404.964L11.1328 407.296L120.344 431.968L120.871 429.644L11.6602 404.964Z" stroke="white" stroke-width="0.795776"/>
<path d="M11.6602 404.965L11.1328 407.297L120.344 431.969L120.871 429.645L11.6602 404.965Z" fill="#010101"/>
<path d="M36.7422 317.523L14.6914 415.097L17.0195 415.628L39.0547 318.05L36.7422 317.523Z" stroke="white" stroke-width="0.795776"/>
<path d="M36.7422 317.523L14.6914 415.098L17.0195 415.629L39.0547 318.051L36.7422 317.523Z" fill="#010101"/>
<path d="M32.8242 317.179L32.2969 319.511L140.254 343.949L140.762 341.617L32.8242 317.179Z" stroke="white" stroke-width="0.795776"/>
<path d="M32.8242 317.18L32.2969 319.512L140.254 343.949L140.762 341.617L32.8242 317.18Z" fill="#010101"/>
<path d="M23.2812 303.484L22.7578 305.812L142.801 332.957L143.312 330.628L23.2812 303.484Z" stroke="white" stroke-width="0.795776"/>
<path d="M23.2812 303.484L22.7578 305.812L142.801 332.957L143.312 330.629L23.2812 303.484Z" fill="#010101"/>
<path d="M29.0976 300.171L2.02344 420.117L4.35547 420.652L31.4258 300.699L29.0976 300.171Z" stroke="white" stroke-width="0.795776"/>
<path d="M29.0977 300.172L2.02344 420.117L4.35547 420.652L31.4258 300.699L29.0977 300.172Z" fill="#010101"/>
<path d="M1.30859 414.199L0.78125 416.531L117.875 442.957L118.402 440.625L1.30859 414.199Z" stroke="white" stroke-width="0.795776"/>
<path d="M1.30859 414.199L0.78125 416.531L117.875 442.957L118.402 440.625L1.30859 414.199Z" fill="#010101"/>
<path d="M589.613 633.277C564.054 633.277 543.277 654.043 543.277 679.601C543.277 705.16 564.054 725.91 589.613 725.91C615.175 725.91 635.941 705.16 635.941 679.601C635.941 653.965 615.175 633.277 589.613 633.277ZM589.613 635.656C613.886 635.656 633.547 655.254 633.547 679.601C633.547 703.867 613.886 723.531 589.613 723.531C565.347 723.531 545.668 703.867 545.668 679.601C545.668 655.336 565.347 635.656 589.613 635.656Z" stroke="white" stroke-width="0.795776"/>
<path d="M589.613 633.277C564.055 633.277 543.277 654.043 543.277 679.602C543.277 705.16 564.055 725.91 589.613 725.91C615.176 725.91 635.941 705.16 635.941 679.602C635.941 653.965 615.176 633.277 589.613 633.277ZM589.613 635.656C613.887 635.656 633.547 655.254 633.547 679.602C633.547 703.867 613.887 723.531 589.613 723.531C565.348 723.531 545.668 703.867 545.668 679.602C545.668 655.336 565.348 635.656 589.613 635.656Z" fill="#010101"/>
<path d="M971.613 192.456H1076.93V190.077H971.613V192.456Z" stroke="white" stroke-width="0.795776"/>
<path d="M971.613 192.457H1076.93V190.078H971.613V192.457Z" fill="#010101"/>
<path d="M979.324 679.57H981.714V182.742H979.324V679.57Z" stroke="white" stroke-width="0.795776"/>
<path d="M979.324 679.57H981.715V182.742H979.324V679.57Z" fill="#010101"/>
<path d="M975.667 195.011H1080.98V192.616H975.667V195.011Z" stroke="white" stroke-width="0.795776"/>
<path d="M975.668 195.012H1080.98V192.617H975.668V195.012Z" fill="#010101"/>
<path d="M983.316 682.105H985.695V185.214H983.316V682.105Z" stroke="white" stroke-width="0.795776"/>
<path d="M983.316 682.105H985.695V185.215H983.316V682.105Z" fill="#010101"/>
<path d="M979.648 678.203H1081.93V675.824H979.648V678.203Z" stroke="white" stroke-width="0.795776"/>
<path d="M979.648 678.203H1081.93V675.824H979.648V678.203Z" fill="#010101"/>
<path d="M422.14 840.059H773.339V837.668H422.14V840.059Z" stroke="white" stroke-width="0.795776"/>
<path d="M422.141 840.059H773.34V837.668H422.141V840.059Z" fill="#010101"/>
<path d="M427.066 853.816H429.461V731.492H427.066V853.816Z" stroke="white" stroke-width="0.795776"/>
<path d="M427.066 853.816H429.461V731.492H427.066V853.816Z" fill="#010101"/>
<path d="M420.465 738.488H778.996V736.109H420.465V738.488Z" stroke="white" stroke-width="0.795776"/>
<path d="M420.465 738.488H778.996V736.109H420.465V738.488Z" fill="#010101"/>
<path d="M765.539 850.477H767.929V731.492H765.539V850.477Z" stroke="white" stroke-width="0.795776"/>
<path d="M765.539 850.477H767.93V731.492H765.539V850.477Z" fill="#010101"/>
<path d="M422.14 844.988H773.339V842.594H422.14V844.988Z" stroke="white" stroke-width="0.795776"/>
<path d="M422.141 844.988H773.34V842.594H422.141V844.988Z" fill="#010101"/>
<path d="M423.324 853.816H425.715V731.492H423.324V853.816Z" stroke="white" stroke-width="0.795776"/>
<path d="M423.324 853.816H425.715V731.492H423.324V853.816Z" fill="#010101"/>
<path d="M160.437 722.601H289.789V720.207H160.437V722.601Z" stroke="white" stroke-width="0.795776"/>
<path d="M160.438 722.602H289.789V720.207H160.438V722.602Z" fill="#010101"/>
<path d="M164.492 718.543H294.808V716.148H164.492V718.543Z" stroke="white" stroke-width="0.795776"/>
<path d="M164.492 718.543H294.809V716.148H164.492V718.543Z" fill="#010101"/>
<path d="M173.57 733.34H175.961V240.913H173.57V733.34Z" stroke="white" stroke-width="0.795776"/>
<path d="M173.57 733.34H175.961V240.914H173.57V733.34Z" fill="#010101"/>
<path d="M177.641 728.32H180.016V237.882H177.641V728.32Z" stroke="white" stroke-width="0.795776"/>
<path d="M177.641 728.32H180.016V237.883H177.641V728.32Z" fill="#010101"/>
<path d="M169.031 248.777H298.152V246.398H169.031V248.777Z" stroke="white" stroke-width="0.795776"/>
<path d="M169.031 248.777H298.152V246.398H169.031V248.777Z" fill="#010101"/>
<path d="M290.43 727.449H292.82V238.675H290.43V727.449Z" stroke="white" stroke-width="0.795776"/>
<path d="M290.43 727.449H292.82V238.676H290.43V727.449Z" fill="#010101"/>
<path d="M442.75 189.304L442.531 191.679L782.835 222.96L783.054 220.577L442.75 189.304Z" stroke="white" stroke-width="0.795776"/>
<path d="M442.75 189.305L442.531 191.68L782.836 222.961L783.055 220.578L442.75 189.305Z" fill="#010101"/>
<path d="M776.449 159.769L447.457 193.441L447.691 195.816L776.695 162.144L776.449 159.769Z" stroke="white" stroke-width="0.795776"/>
<path d="M776.449 159.77L447.457 193.441L447.691 195.816L776.695 162.145L776.449 159.77Z" fill="#010101"/>
<path d="M774.867 154.202L445.855 187.874L446.105 190.234L775.093 156.585L774.867 154.202Z" stroke="white" stroke-width="0.795776"/>
<path d="M774.867 154.203L445.855 187.875L446.105 190.234L775.094 156.586L774.867 154.203Z" fill="#010101"/>
<path d="M613.98 83.6712L613.886 86.0657L772.472 92.3508L772.562 89.968L613.98 83.6712Z" stroke="white" stroke-width="0.795776"/>
<path d="M613.98 83.6719L613.887 86.0664L772.473 92.3516L772.562 89.9688L613.98 83.6719Z" fill="#010101"/>
<path d="M758.578 81.964L755.085 171.027L757.457 171.116L760.972 82.0539L758.578 81.964Z" stroke="white" stroke-width="0.795776"/>
<path d="M758.578 81.9648L755.086 171.027L757.457 171.117L760.973 82.0547L758.578 81.9648Z" fill="#010101"/>
<path d="M617.523 78.9289L613.781 173.402L616.168 173.511L619.918 79.0226L617.523 78.9289Z" stroke="white" stroke-width="0.795776"/>
<path d="M617.523 78.9297L613.781 173.402L616.168 173.512L619.918 79.0234L617.523 78.9297Z" fill="#010101"/>
<path d="M461.894 81.7142L459.515 81.8119L463.961 187.058L466.34 186.964L461.894 81.7142Z" stroke="white" stroke-width="0.795776"/>
<path d="M461.895 81.7148L459.516 81.8125L463.961 187.059L466.34 186.965L461.895 81.7148Z" fill="#010101"/>
<path d="M603.863 83.1907L454.125 89.4876L454.234 91.8665L603.957 85.5852L603.863 83.1907Z" stroke="white" stroke-width="0.795776"/>
<path d="M603.863 83.1914L454.125 89.4883L454.234 91.8672L603.957 85.5859L603.863 83.1914Z" fill="#010101"/>
<path d="M598.582 77.1749L596.187 77.2844L600.644 182.894L603.043 182.792L598.582 77.1749Z" stroke="white" stroke-width="0.795776"/>
<path d="M598.582 77.1758L596.188 77.2852L600.645 182.895L603.043 182.793L598.582 77.1758Z" fill="#010101"/>
<path d="M774.66 178.156H883.316V175.765H774.66V178.156Z" stroke="white" stroke-width="0.795776"/>
<path d="M774.66 178.156H883.316V175.766H774.66V178.156Z" fill="#010101"/>
<path d="M774.585 180.378H776.96V70.1478H774.585V180.378Z" stroke="white" stroke-width="0.795776"/>
<path d="M774.586 180.379H776.961V70.1484H774.586V180.379Z" fill="#010101"/>
<path d="M774.66 83.5188H879.335V81.1243H774.66V83.5188Z" stroke="white" stroke-width="0.795776"/>
<path d="M774.66 83.5195H879.336V81.125H774.66V83.5195Z" fill="#010101"/>
<path d="M779.277 180.378H781.671V70.1478H779.277V180.378Z" stroke="white" stroke-width="0.795776"/>
<path d="M779.277 180.379H781.672V70.1484H779.277V180.379Z" fill="#010101"/>
<path d="M774.66 173.773H883.316V171.378H774.66V173.773Z" stroke="white" stroke-width="0.795776"/>
<path d="M774.66 173.773H883.316V171.379H774.66V173.773Z" fill="#010101"/>
<path d="M869.546 178.707H871.941V75.7181H869.546V178.707Z" stroke="white" stroke-width="0.795776"/>
<path d="M869.547 178.707H871.941V75.7188H869.547V178.707Z" fill="#010101"/>
<path d="M440.883 182.292H443.277V77.55H440.883V182.292Z" stroke="white" stroke-width="0.795776"/>
<path d="M440.883 182.293H443.277V77.5508H440.883V182.293Z" fill="#010101"/>
<path d="M346.867 186.195H349.261V77.55H346.867V186.195Z" stroke="white" stroke-width="0.795776"/>
<path d="M346.867 186.195H349.262V77.5508H346.867V186.195Z" fill="#010101"/>
<path d="M345.672 179.82H448.683V177.425H345.672V179.82Z" stroke="white" stroke-width="0.795776"/>
<path d="M345.672 179.82H448.684V177.426H345.672V179.82Z" fill="#010101"/>
<path d="M344.008 84.5461H454.261V82.1673H344.008V84.5461Z" stroke="white" stroke-width="0.795776"/>
<path d="M344.008 84.5469H454.262V82.168H344.008V84.5469Z" fill="#010101"/>
<path d="M350.613 186.195H353.008V77.55H350.613V186.195Z" stroke="white" stroke-width="0.795776"/>
<path d="M350.613 186.195H353.008V77.5508H350.613V186.195Z" fill="#010101"/>
<path d="M345.672 174.812H448.683V172.421H345.672V174.812Z" stroke="white" stroke-width="0.795776"/>
<path d="M345.672 174.812H448.684V172.422H345.672V174.812Z" fill="#010101"/>
<path d="M446.058 521.988H448.453V181.175H446.058V521.988Z" stroke="white" stroke-width="0.795776"/>
<path d="M446.059 521.988H448.453V181.176H446.059V521.988Z" fill="#010101"/>
<path d="M441.039 506.148H594.679V503.753H441.039V506.148Z" stroke="white" stroke-width="0.795776"/>
<path d="M441.039 506.148H594.68V503.754H441.039V506.148Z" fill="#010101"/>
<path d="M766.628 510.531H769.007V63.6984H766.628V510.531Z" stroke="white" stroke-width="0.795776"/>
<path d="M766.629 510.531H769.008V63.6992H766.629V510.531Z" fill="#010101"/>
<path d="M434.761 76.1985H794.32V73.8001H434.761V76.1985Z" stroke="white" stroke-width="0.795776"/>
<path d="M434.762 76.1992H794.32V73.8008H434.762V76.1992Z" fill="#010101"/>
<path d="M455.211 514.824H457.605V65.128H455.211V514.824Z" stroke="white" stroke-width="0.795776"/>
<path d="M455.211 514.824H457.605V65.1289H455.211V514.824Z" fill="#010101"/>
<path d="M429.027 500.335H784.296V497.953H429.027V500.335Z" stroke="white" stroke-width="0.795776"/>
<path d="M429.027 500.336H784.297V497.953H429.027V500.336Z" fill="#010101"/>
<path d="M126.809 624.121L32.1719 645.558L32.7031 647.89L127.336 626.453L126.809 624.121Z" stroke="white" stroke-width="0.795776"/>
<path d="M126.809 624.121L32.1719 645.559L32.7031 647.891L127.336 626.453L126.809 624.121Z" fill="#010101"/>
<path d="M18.7617 569.261L16.4297 569.789L34.8437 651.449L37.1758 650.922L18.7617 569.261Z" stroke="white" stroke-width="0.795776"/>
<path d="M18.7617 569.262L16.4297 569.793L34.8438 651.449L37.1758 650.922L18.7617 569.262Z" fill="#010101"/>
<path d="M110.617 523.605L108.285 524.132L136.305 648.574L138.633 648.043L110.617 523.605Z" stroke="white" stroke-width="0.795776"/>
<path d="M110.617 523.605L108.285 524.133L136.305 648.574L138.633 648.043L110.617 523.605Z" fill="#010101"/>
<path d="M117.129 525.734L0.347656 552.257L0.874999 554.585L117.656 528.066L117.129 525.734Z" stroke="white" stroke-width="0.795776"/>
<path d="M117.129 525.734L0.347656 552.258L0.875 554.586L117.656 528.066L117.129 525.734Z" fill="#010101"/>
<path d="M130.941 623.902L128.613 624.433L133.539 646.258L135.855 645.746L130.941 623.902Z" stroke="white" stroke-width="0.795776"/>
<path d="M130.941 623.902L128.613 624.434L133.539 646.258L135.855 645.746L130.941 623.902Z" fill="#010101"/>
<path d="M108.937 526.078L106.621 526.605L111.144 546.828L113.476 546.316L108.937 526.078Z" stroke="white" stroke-width="0.795776"/>
<path d="M108.938 526.078L106.621 526.605L111.145 546.828L113.477 546.316L108.938 526.078Z" fill="#010101"/>
<path d="M107.43 539.617L105.117 540.144L126.777 636.465L129.109 635.933L107.43 539.617Z" stroke="white" stroke-width="0.795776"/>
<path d="M107.43 539.617L105.117 540.145L126.777 636.465L129.109 635.934L107.43 539.617Z" fill="#010101"/>
<path d="M115.141 540.875L6.21875 565.562L6.75 567.894L115.668 543.191L115.141 540.875Z" stroke="white" stroke-width="0.795776"/>
<path d="M115.141 540.875L6.21875 565.562L6.75 567.895L115.668 543.191L115.141 540.875Z" fill="#010101"/>
<path d="M12.0937 557.226L9.76562 557.758L31.7539 655.429L34.082 654.898L12.0937 557.226Z" stroke="white" stroke-width="0.795776"/>
<path d="M12.0938 557.227L9.76562 557.758L31.7539 655.43L34.082 654.898L12.0938 557.227Z" fill="#010101"/>
<path d="M134.984 628.988L27.3398 653.437L27.8672 655.769L135.512 631.316L134.984 628.988Z" stroke="white" stroke-width="0.795776"/>
<path d="M134.984 628.988L27.3398 653.438L27.8672 655.77L135.512 631.316L134.984 628.988Z" fill="#010101"/>
<path d="M137.453 639.976L17.8125 667.148L18.3398 669.465L137.984 642.308L137.453 639.976Z" stroke="white" stroke-width="0.795776"/>
<path d="M137.453 639.977L17.8125 667.148L18.3398 669.465L137.984 642.309L137.453 639.977Z" fill="#010101"/>
<path d="M-0.539064 552.211L-2.85547 552.738L24.1367 672.793L26.4531 672.265L-0.539064 552.211Z" stroke="white" stroke-width="0.795776"/>
<path d="M-0.539061 552.211L-2.85547 552.738L24.1367 672.793L26.4531 672.266L-0.539061 552.211Z" fill="#010101"/>
<path d="M112.684 529.871L-4.09766 556.328L-3.58594 558.66L113.211 532.199L112.684 529.871Z" stroke="white" stroke-width="0.795776"/>
<path d="M112.684 529.871L-4.09766 556.328L-3.58594 558.66L113.211 532.199L112.684 529.871Z" fill="#010101"/>
<path d="M591.156 636.355L573.922 640.273L559.359 650.425L549.707 665.3L546.367 682.695L549.476 699.375L558.41 713.816L573.578 723.082L591.078 725.863L608.324 721.929L622.886 711.797L632.519 696.937L635.953 679.601L635.91 679.367L632.769 662.843L623.91 648.402L608.648 639.136L591.156 636.355ZM591.25 638.781L607.812 641.422L622.171 650.144L630.496 663.715L633.527 679.586L630.265 696.019L621.132 710.117L607.347 719.707L590.996 723.426L574.429 720.797L560.136 712.074L551.73 698.504L548.793 682.711L551.965 666.199L561.113 652.101L574.898 642.511L591.25 638.781Z" stroke="white" stroke-width="0.795776"/>
<path d="M591.156 636.355L573.922 640.273L559.359 650.426L549.707 665.301L546.367 682.695L549.477 699.375L558.41 713.816L573.578 723.082L591.078 725.863L608.324 721.93L622.887 711.797L632.52 696.938L635.953 679.602L635.91 679.367L632.77 662.844L623.91 648.402L608.648 639.137L591.156 636.355ZM591.25 638.781L607.812 641.422L622.172 650.145L630.496 663.715L633.527 679.586L630.266 696.02L621.133 710.117L607.348 719.707L590.996 723.426L574.43 720.797L560.137 712.074L551.73 698.504L548.793 682.711L551.965 666.199L561.113 652.102L574.898 642.512L591.25 638.781Z" fill="#010101"/>
</g>
<defs>
<clipPath id="clip0_2002_2741">
<rect width="2446" height="999" fill="white" transform="translate(-10)"/>
</clipPath>
</defs>
</svg>
